<?xml version="1.0" ?><!DOCTYPE svg  PUBLIC '-//W3C//DTD SVG 1.1//EN'  'http://www.w3.org/Graphics/SVG/1.1/DTD/svg11.dtd'><svg enable-background="new 0 0 64 64" id="Layer_1" version="1.1" viewBox="0 0 64 64" xml:space="preserve" xmlns="http://www.w3.org/2000/svg" xmlns:xlink="http://www.w3.org/1999/xlink"><path d="  M60.3,50.7c0-3.5-0.4-8.5-2.6-9.1C55.5,41,48,39.1,48,39.1v0l-5.9,6.2l-5.9-6.2c0,0-7.6,1.9-9.8,2.5c-2.2,0.6-2.7,5.6-2.7,9.1" fill="none" stroke="#2C3E50" stroke-linecap="round" stroke-linejoin="round" stroke-miterlimit="10" stroke-width="2"/><path d="  M49.7,18.8c-1-4.7-5.5-5.5-7.7-5.5c-2.7,0-7,0.6-7.7,6.2c-0.5,4.3,1.5,9.9,2.9,11.8c1.6,2.1,3.1,3.1,5.2,3.1c1.9,0,3.2-0.9,4.9-3.4  C48.8,28.7,50.5,22.8,49.7,18.8z" fill="none" stroke="#2C3E50" stroke-linecap="round" stroke-linejoin="round" stroke-miterlimit="10" stroke-width="2"/><path d="  M26.2,39.1c0,0-7.7,1.9-9.8,2.5c-2.2,0.6-2.7,5.5-2.7,9 M38.1,39" fill="none" stroke="#2C3E50" stroke-linecap="round" stroke-linejoin="round" stroke-miterlimit="10" stroke-width="2"/><path d="  M33.7,13.5c-0.7-0.1-1.3-0.2-1.8-0.2c-2.7,0-7,0.6-7.7,6.2c-0.5,4.3,1.5,9.9,2.9,11.8c1.6,2.1,3.1,3.1,5.2,3.1  c0.9,0,1.6-0.2,2.3-0.6" fill="none" stroke="#2C3E50" stroke-linecap="round" stroke-linejoin="round" stroke-miterlimit="10" stroke-width="2"/><path d="  M16.2,39.1c0,0-7.7,1.9-9.8,2.5c-2.2,0.6-2.7,5.5-2.7,9 M28.1,39" fill="none" stroke="#2C3E50" stroke-linecap="round" stroke-linejoin="round" stroke-miterlimit="10" stroke-width="2"/><path d="  M23.7,13.5c-0.7-0.1-1.3-0.2-1.8-0.2c-2.7,0-7,0.6-7.7,6.2c-0.5,4.3,1.5,9.9,2.9,11.8c1.6,2.1,3.1,3.1,5.2,3.1  c0.9,0,1.6-0.2,2.3-0.6" fill="none" stroke="#2C3E50" stroke-linecap="round" stroke-linejoin="round" stroke-miterlimit="10" stroke-width="2"/></svg>