<?xml version="1.0" ?><svg id="Слой_1" style="enable-background:new 0 0 100 100;" version="1.1" viewBox="0 0 100 100" xml:space="preserve" xmlns="http://www.w3.org/2000/svg" xmlns:xlink="http://www.w3.org/1999/xlink"><path d="M38.653,38.146c-4.393,0-7.967,3.574-7.967,7.968c0,4.393,3.574,7.967,7.967,7.967s7.967-3.574,7.967-7.967  C46.62,41.721,43.046,38.146,38.653,38.146z M38.653,50.081c-2.188,0-3.967-1.779-3.967-3.967s1.78-3.968,3.967-3.968  s3.967,1.78,3.967,3.968S40.84,50.081,38.653,50.081z"/><path d="M19.296,36.287c0,1.104,0.896,2,2,2s2-0.896,2-2c0-2.188,1.78-3.967,3.967-3.967s3.967,1.779,3.967,3.967  c0,1.104,0.896,2,2,2s2-0.896,2-2c0-4.393-3.574-7.967-7.967-7.967S19.296,31.895,19.296,36.287z"/><path d="M36.396,91.471h4.514c3.039,0,5.511-2.47,5.511-5.505v-3.465c0-1.104-0.896-2-2-2s-2,0.896-2,2v3.465  c0,0.83-0.678,1.505-1.511,1.505h-4.514c-0.833,0-1.511-0.675-1.511-1.505V74.478c0-1.025-0.776-1.886-1.797-1.989  c-0.795-0.082-1.394-0.748-1.394-1.552V60.113c0-0.859,0.699-1.559,1.559-1.559h10.8c0.859,0,1.559,0.699,1.559,1.559v10.823  c0,0.803-0.6,1.47-1.394,1.552c-1.021,0.104-1.797,0.964-1.797,1.989V78c0,1.104,0.896,2,2,2s2-0.896,2-2v-2.027  c1.903-0.891,3.191-2.817,3.191-5.036V60.113c0-3.065-2.494-5.559-5.559-5.559h-10.8c-3.065,0-5.559,2.493-5.559,5.559v10.823  c0,2.219,1.288,4.146,3.191,5.036v9.993C30.885,89.001,33.357,91.471,36.396,91.471z"/><path d="M61.347,54.081c4.394,0,7.968-3.574,7.968-7.967c0-4.394-3.574-7.968-7.968-7.968c-4.393,0-7.967,3.574-7.967,7.968  C53.38,50.507,56.954,54.081,61.347,54.081z M61.347,42.146c2.188,0,3.968,1.78,3.968,3.968s-1.78,3.967-3.968,3.967  c-2.188,0-3.967-1.779-3.967-3.967S59.16,42.146,61.347,42.146z"/><path d="M69.115,85.966v-9.993c1.903-0.891,3.191-2.817,3.191-5.036V60.113c0-3.065-2.494-5.559-5.559-5.559h-10.8  c-3.065,0-5.559,2.493-5.559,5.559v10.823c0,2.219,1.288,4.146,3.191,5.036v9.993c0,3.035,2.472,5.505,5.511,5.505h4.514  C66.643,91.471,69.115,89.001,69.115,85.966z M65.115,74.478v11.488c0,0.83-0.678,1.505-1.511,1.505H59.09  c-0.833,0-1.511-0.675-1.511-1.505V74.478c0-1.025-0.776-1.886-1.797-1.989c-0.794-0.082-1.394-0.749-1.394-1.552V60.113  c0-0.859,0.699-1.559,1.559-1.559h10.8c0.859,0,1.559,0.699,1.559,1.559v10.823c0,0.804-0.599,1.47-1.394,1.552  C65.891,72.592,65.115,73.451,65.115,74.478z"/><path d="M7.991,46.114c0,4.393,3.574,7.967,7.967,7.967s7.967-3.574,7.967-7.967c0-4.394-3.574-7.968-7.967-7.968  S7.991,41.721,7.991,46.114z M15.958,42.146c2.188,0,3.967,1.78,3.967,3.968s-1.78,3.967-3.967,3.967s-3.967-1.779-3.967-3.967  S13.771,42.146,15.958,42.146z"/><path d="M26.917,66.5c0-1.104-0.896-2-2-2s-2,0.896-2,2v4.437c0,0.803-0.6,1.47-1.394,1.552c-1.021,0.104-1.797,0.964-1.797,1.989  v11.488c0,0.83-0.678,1.505-1.511,1.505h-4.513c-0.833,0-1.511-0.675-1.511-1.505V74.478c0-1.025-0.776-1.886-1.797-1.989  C9.599,72.406,9,71.74,9,70.937V60.113c0-0.859,0.699-1.559,1.559-1.559h10.8c0.859,0,1.559,0.699,1.559,1.559v1.386  c0,1.104,0.896,2,2,2s2-0.896,2-2v-1.386c0-3.065-2.494-5.559-5.559-5.559h-10.8C7.494,54.555,5,57.048,5,60.113v10.823  c0,2.219,1.288,4.146,3.191,5.036v9.993c0,3.035,2.472,5.505,5.511,5.505h4.513c3.039,0,5.511-2.47,5.511-5.505v-9.993  c1.903-0.891,3.191-2.817,3.191-5.036V66.5z"/><path d="M53.967,36.287c0,1.104,0.896,2,2,2s2-0.896,2-2c0-4.393-3.574-7.967-7.967-7.967s-7.967,3.574-7.967,7.967  c0,1.104,0.896,2,2,2s2-0.896,2-2c0-2.188,1.78-3.967,3.967-3.967S53.967,34.1,53.967,36.287z"/><path d="M84.042,54.081c4.394,0,7.968-3.574,7.968-7.967c0-4.394-3.574-7.968-7.968-7.968c-4.393,0-7.967,3.574-7.967,7.968  C76.074,50.507,79.648,54.081,84.042,54.081z M84.042,42.146c2.188,0,3.968,1.78,3.968,3.968s-1.78,3.967-3.968,3.967  c-2.188,0-3.967-1.779-3.967-3.967S81.854,42.146,84.042,42.146z"/><path d="M89.441,54.555h-10.8c-3.065,0-5.559,2.493-5.559,5.559v3.554c0,1.104,0.896,2,2,2s2-0.896,2-2v-3.554  c0-0.859,0.699-1.559,1.559-1.559h10.8c0.859,0,1.559,0.699,1.559,1.559v10.823c0,0.804-0.599,1.47-1.394,1.552  c-1.021,0.104-1.797,0.964-1.797,1.989v11.488c0,0.83-0.678,1.505-1.511,1.505h-4.513c-0.833,0-1.511-0.675-1.511-1.505V74.478  c0-1.025-0.776-1.886-1.797-1.989c-0.794-0.082-1.394-0.749-1.394-1.552v-2.27c0-1.104-0.896-2-2-2s-2,0.896-2,2v2.27  c0,2.219,1.288,4.146,3.191,5.036v9.993c0,3.035,2.472,5.505,5.511,5.505h4.513c3.039,0,5.511-2.47,5.511-5.505v-9.993  C93.712,75.082,95,73.155,95,70.937V60.113C95,57.048,92.506,54.555,89.441,54.555z"/><path d="M76.662,36.287c0,1.104,0.896,2,2,2s2-0.896,2-2c0-4.393-3.574-7.967-7.967-7.967s-7.967,3.574-7.967,7.967  c0,1.104,0.896,2,2,2s2-0.896,2-2c0-2.188,1.78-3.967,3.967-3.967S76.662,34.1,76.662,36.287z"/><path d="M30.686,26.456c0,1.104,0.896,2,2,2s2-0.896,2-2c0-2.188,1.78-3.967,3.967-3.967s3.967,1.779,3.967,3.967  c0,1.104,0.896,2,2,2s2-0.896,2-2c0-4.393-3.574-7.967-7.967-7.967S30.686,22.063,30.686,26.456z"/><path d="M67.314,28.456c1.104,0,2-0.896,2-2c0-4.393-3.574-7.967-7.967-7.967s-7.967,3.574-7.967,7.967c0,1.104,0.896,2,2,2  s2-0.896,2-2c0-2.188,1.78-3.967,3.967-3.967s3.967,1.779,3.967,3.967C65.314,27.561,66.21,28.456,67.314,28.456z"/><path d="M50,8.529c-4.393,0-7.967,3.574-7.967,7.968c0,1.104,0.896,2,2,2s2-0.896,2-2c0-2.188,1.78-3.968,3.967-3.968  s3.967,1.78,3.967,3.968c0,1.104,0.896,2,2,2s2-0.896,2-2C57.967,12.104,54.393,8.529,50,8.529z"/></svg>